<mxfile host="app.diagrams.net" agent="Mozilla/5.0 (Windows NT 10.0; Win64; x64) AppleWebKit/537.36 (KHTML, like Gecko) Chrome/131.0.0.0 Safari/537.36" version="24.8.9">
  <diagram name="Page-1" id="7-i04EOj_khpaTEf1PhM">
    <mxGraphModel dx="880" dy="1560" grid="1" gridSize="10" guides="1" tooltips="1" connect="1" arrows="1" fold="1" page="1" pageScale="1" pageWidth="850" pageHeight="1100" math="0" shadow="0">
      <root>
        <mxCell id="0" />
        <mxCell id="1" parent="0" />
        <mxCell id="1KmO4FJFmhnTEATImMJX-3" style="edgeStyle=orthogonalEdgeStyle;rounded=0;orthogonalLoop=1;jettySize=auto;html=1;exitX=1;exitY=0.5;exitDx=0;exitDy=0;" edge="1" parent="1" source="1KmO4FJFmhnTEATImMJX-1" target="1KmO4FJFmhnTEATImMJX-2">
          <mxGeometry relative="1" as="geometry" />
        </mxCell>
        <mxCell id="1KmO4FJFmhnTEATImMJX-1" value="SIGN IN" style="ellipse;whiteSpace=wrap;html=1;" vertex="1" parent="1">
          <mxGeometry x="70" y="60" width="120" height="80" as="geometry" />
        </mxCell>
        <mxCell id="1KmO4FJFmhnTEATImMJX-4" style="edgeStyle=orthogonalEdgeStyle;rounded=0;orthogonalLoop=1;jettySize=auto;html=1;exitX=0.5;exitY=0;exitDx=0;exitDy=0;entryX=0.5;entryY=1;entryDx=0;entryDy=0;" edge="1" parent="1" source="1KmO4FJFmhnTEATImMJX-2" target="1KmO4FJFmhnTEATImMJX-5">
          <mxGeometry relative="1" as="geometry">
            <mxPoint x="440" y="10" as="targetPoint" />
          </mxGeometry>
        </mxCell>
        <mxCell id="1KmO4FJFmhnTEATImMJX-6" style="edgeStyle=orthogonalEdgeStyle;rounded=0;orthogonalLoop=1;jettySize=auto;html=1;exitX=0.5;exitY=1;exitDx=0;exitDy=0;entryX=0.5;entryY=0;entryDx=0;entryDy=0;" edge="1" parent="1" source="1KmO4FJFmhnTEATImMJX-2" target="1KmO4FJFmhnTEATImMJX-7">
          <mxGeometry relative="1" as="geometry">
            <mxPoint x="440" y="210" as="targetPoint" />
          </mxGeometry>
        </mxCell>
        <mxCell id="1KmO4FJFmhnTEATImMJX-2" value="REQUEST" style="rounded=0;whiteSpace=wrap;html=1;shape=rhombus;perimeter=rhombusPerimeter;" vertex="1" parent="1">
          <mxGeometry x="380" y="70" width="120" height="60" as="geometry" />
        </mxCell>
        <mxCell id="1KmO4FJFmhnTEATImMJX-5" value="GET PRODUCTS" style="rounded=1;whiteSpace=wrap;html=1;" vertex="1" parent="1">
          <mxGeometry x="380" y="-90" width="120" height="60" as="geometry" />
        </mxCell>
        <mxCell id="1KmO4FJFmhnTEATImMJX-7" value="" style="rounded=1;whiteSpace=wrap;html=1;" vertex="1" parent="1">
          <mxGeometry x="380" y="230" width="120" height="60" as="geometry" />
        </mxCell>
      </root>
    </mxGraphModel>
  </diagram>
</mxfile>
